<svg xmlns="http://www.w3.org/2000/svg" width="240" height="160" viewBox="0 0 240 160" role="img" aria-label="Cybersecurity">
 <defs><linearGradient id="bg" x1="0" y1="0" x2="1" y2="1"><stop stop-color="#080D19"/><stop offset="1" stop-color="#10253B"/></linearGradient><pattern id="g" width="16" height="16" patternUnits="userSpaceOnUse"><path d="M16 0H0V16" fill="none" stroke="#94A3B8" stroke-opacity=".1"/></pattern></defs>
 <rect width="240" height="160" rx="14" fill="url(#bg)"/><rect width="240" height="160" rx="14" fill="url(#g)"/><rect x="1" y="1" width="238" height="158" rx="13" fill="none" stroke="#2DD4BF" stroke-opacity=".45"/>
 <g fill="none" stroke-linecap="round" stroke-linejoin="round"><path d="M118 28l37 14v27c0 26-16 43-37 54-21-11-37-28-37-54V42z" stroke="#5EEAD4" stroke-width="2"/><path d="M101 68l11 11 23-26" stroke="#2DD4BF" stroke-width="3"/><path d="M34 47h32v18H34zM170 84h34v18h-34zM42 111h27" stroke="#2DD4BF"/><path d="M66 56h24M155 92h15M69 120l17-14" stroke="#2DD4BF" stroke-opacity=".6"/><circle cx="118" cy="64" r="54" stroke="#2DD4BF" stroke-opacity=".16" stroke-dasharray="3 7"><animateTransform attributeName="transform" type="rotate" from="0" to="360" dur="30s" repeatCount="indefinite"/></circle></g>
 <text x="18" y="22" fill="#2DD4BF" font-family="Inter,Arial,sans-serif" font-size="9" font-weight="700" letter-spacing="1.6">CYBERSECURITY</text>
 <circle cx="218" cy="20" r="3" fill="#2DD4BF"><animate attributeName="opacity" values=".25;1;.25" dur="2.8s" repeatCount="indefinite"/></circle>
 </svg>